<?xml version="1.0" encoding="UTF-8"?>
<!DOCTYPE svg PUBLIC "-//W3C//DTD SVG 1.1//EN" "http://www.w3.org/Graphics/SVG/1.1/DTD/svg11.dtd">
<svg xmlns="http://www.w3.org/2000/svg" version="1.1" width="512px" height="512px" style="shape-rendering:geometricPrecision; text-rendering:geometricPrecision; image-rendering:optimizeQuality; fill-rule:evenodd; clip-rule:evenodd" xmlns:xlink="http://www.w3.org/1999/xlink">
<g><path style="opacity:0.996" fill="#000000" d="M 41.5,111.5 C 184.167,111.333 326.834,111.5 469.5,112C 476.487,114.807 479.82,119.973 479.5,127.5C 479.82,135.027 476.487,140.193 469.5,143C 326.833,143.667 184.167,143.667 41.5,143C 34.513,140.193 31.1797,135.027 31.5,127.5C 31.3021,119.885 34.6354,114.551 41.5,111.5 Z"/></g>
<g><path style="opacity:0.996" fill="#000000" d="M 41.5,239.5 C 184.167,239.333 326.834,239.5 469.5,240C 476.487,242.807 479.82,247.973 479.5,255.5C 479.82,263.027 476.487,268.193 469.5,271C 326.833,271.667 184.167,271.667 41.5,271C 34.513,268.193 31.1797,263.027 31.5,255.5C 31.3021,247.885 34.6354,242.551 41.5,239.5 Z"/></g>
<g><path style="opacity:0.996" fill="#000000" d="M 41.5,367.5 C 184.167,367.333 326.834,367.5 469.5,368C 476.487,370.807 479.82,375.973 479.5,383.5C 479.82,391.027 476.487,396.193 469.5,399C 326.833,399.667 184.167,399.667 41.5,399C 34.513,396.193 31.1797,391.027 31.5,383.5C 31.3021,375.885 34.6354,370.551 41.5,367.5 Z"/></g>
</svg>
